<svg width="9" height="26" viewBox="0 0 9 26" fill="none" xmlns="http://www.w3.org/2000/svg">
<path d="M1.625 16.075L0.33 0.499998H8.24L6.91 16.075H1.625ZM4.285 25.315C3.11833 25.315 2.16167 24.9533 1.415 24.23C0.668333 23.5067 0.295 22.6433 0.295 21.64C0.295 20.6133 0.668333 19.7617 1.415 19.085C2.16167 18.385 3.11833 18.035 4.285 18.035C5.45167 18.035 6.39667 18.385 7.12 19.085C7.86667 19.7617 8.24 20.6133 8.24 21.64C8.24 22.6433 7.86667 23.5067 7.12 24.23C6.39667 24.9533 5.45167 25.315 4.285 25.315Z" fill="#BC1414"/>
</svg>
